<mxfile host="app.diagrams.net" modified="2021-10-20T10:20:23.997Z" agent="5.0 (Windows NT 10.0; Win64; x64) AppleWebKit/537.36 (KHTML, like Gecko) Chrome/94.0.4606.81 Safari/537.36" etag="RdaH7OebhnN_FjCkdbey" version="15.5.6" type="github">
  <diagram id="t_xsoFmQuDRUYfiJM5g0" name="Page-1">
    <mxGraphModel dx="1422" dy="794" grid="1" gridSize="10" guides="1" tooltips="1" connect="1" arrows="1" fold="1" page="1" pageScale="1" pageWidth="827" pageHeight="1169" math="0" shadow="0">
      <root>
        <mxCell id="0" />
        <mxCell id="1" parent="0" />
        <mxCell id="rQXOLik8LWzmccsC6NVH-6" value="users" style="swimlane;" vertex="1" parent="1">
          <mxGeometry x="40" y="30" width="200" height="200" as="geometry" />
        </mxCell>
        <mxCell id="rQXOLik8LWzmccsC6NVH-7" value="tickets" style="swimlane;" vertex="1" parent="1">
          <mxGeometry x="30" y="320" width="200" height="200" as="geometry" />
        </mxCell>
        <mxCell id="rQXOLik8LWzmccsC6NVH-22" value="id" style="text;html=1;align=center;verticalAlign=middle;resizable=0;points=[];autosize=1;strokeColor=none;fillColor=none;" vertex="1" parent="rQXOLik8LWzmccsC6NVH-7">
          <mxGeometry x="40" y="40" width="20" height="20" as="geometry" />
        </mxCell>
        <mxCell id="rQXOLik8LWzmccsC6NVH-8" value="messages" style="swimlane;" vertex="1" parent="1">
          <mxGeometry x="610" y="20" width="200" height="200" as="geometry" />
        </mxCell>
        <mxCell id="rQXOLik8LWzmccsC6NVH-14" value="teams" style="swimlane;" vertex="1" parent="1">
          <mxGeometry x="610" y="250" width="200" height="200" as="geometry" />
        </mxCell>
        <mxCell id="rQXOLik8LWzmccsC6NVH-15" value="entity" style="swimlane;startSize=23;" vertex="1" parent="1">
          <mxGeometry x="610" y="500" width="200" height="200" as="geometry" />
        </mxCell>
        <mxCell id="rQXOLik8LWzmccsC6NVH-16" value="id" style="text;html=1;align=center;verticalAlign=middle;resizable=0;points=[];autosize=1;strokeColor=none;fillColor=none;" vertex="1" parent="1">
          <mxGeometry x="70" y="70" width="20" height="20" as="geometry" />
        </mxCell>
        <mxCell id="rQXOLik8LWzmccsC6NVH-18" value="" style="endArrow=classic;html=1;rounded=0;exitX=1;exitY=0.5;exitDx=0;exitDy=0;entryX=0;entryY=0.5;entryDx=0;entryDy=0;" edge="1" parent="1" source="rQXOLik8LWzmccsC6NVH-6" target="rQXOLik8LWzmccsC6NVH-8">
          <mxGeometry width="50" height="50" relative="1" as="geometry">
            <mxPoint x="290" y="390" as="sourcePoint" />
            <mxPoint x="570" y="150" as="targetPoint" />
          </mxGeometry>
        </mxCell>
        <mxCell id="rQXOLik8LWzmccsC6NVH-19" value="id" style="text;html=1;align=center;verticalAlign=middle;resizable=0;points=[];autosize=1;strokeColor=none;fillColor=none;" vertex="1" parent="1">
          <mxGeometry x="640" y="60" width="20" height="20" as="geometry" />
        </mxCell>
        <mxCell id="rQXOLik8LWzmccsC6NVH-20" value="id" style="text;html=1;align=center;verticalAlign=middle;resizable=0;points=[];autosize=1;strokeColor=none;fillColor=none;" vertex="1" parent="1">
          <mxGeometry x="640" y="530" width="20" height="20" as="geometry" />
        </mxCell>
        <mxCell id="rQXOLik8LWzmccsC6NVH-21" value="id" style="text;html=1;align=center;verticalAlign=middle;resizable=0;points=[];autosize=1;strokeColor=none;fillColor=none;" vertex="1" parent="1">
          <mxGeometry x="630" y="290" width="20" height="20" as="geometry" />
        </mxCell>
        <mxCell id="rQXOLik8LWzmccsC6NVH-23" value="team_entity" style="swimlane;" vertex="1" parent="1">
          <mxGeometry x="30" y="570" width="200" height="200" as="geometry" />
        </mxCell>
        <mxCell id="rQXOLik8LWzmccsC6NVH-24" value="teamId" style="text;html=1;align=center;verticalAlign=middle;resizable=0;points=[];autosize=1;strokeColor=none;fillColor=none;" vertex="1" parent="rQXOLik8LWzmccsC6NVH-23">
          <mxGeometry x="15" y="45" width="50" height="20" as="geometry" />
        </mxCell>
        <mxCell id="rQXOLik8LWzmccsC6NVH-25" value="enitityId" style="text;html=1;align=center;verticalAlign=middle;resizable=0;points=[];autosize=1;strokeColor=none;fillColor=none;" vertex="1" parent="rQXOLik8LWzmccsC6NVH-23">
          <mxGeometry x="10" y="80" width="60" height="20" as="geometry" />
        </mxCell>
        <mxCell id="rQXOLik8LWzmccsC6NVH-26" value="team_entity" style="swimlane;" vertex="1" parent="1">
          <mxGeometry x="330" y="310" width="200" height="200" as="geometry" />
        </mxCell>
        <mxCell id="rQXOLik8LWzmccsC6NVH-27" value="teamId" style="text;html=1;align=center;verticalAlign=middle;resizable=0;points=[];autosize=1;strokeColor=none;fillColor=none;" vertex="1" parent="rQXOLik8LWzmccsC6NVH-26">
          <mxGeometry x="15" y="45" width="50" height="20" as="geometry" />
        </mxCell>
        <mxCell id="rQXOLik8LWzmccsC6NVH-28" value="enitityId" style="text;html=1;align=center;verticalAlign=middle;resizable=0;points=[];autosize=1;strokeColor=none;fillColor=none;" vertex="1" parent="rQXOLik8LWzmccsC6NVH-26">
          <mxGeometry x="10" y="80" width="60" height="20" as="geometry" />
        </mxCell>
        <mxCell id="rQXOLik8LWzmccsC6NVH-29" value="" style="endArrow=classic;html=1;rounded=0;entryX=0.68;entryY=0;entryDx=0;entryDy=0;entryPerimeter=0;exitX=0.25;exitY=1;exitDx=0;exitDy=0;" edge="1" parent="1" source="rQXOLik8LWzmccsC6NVH-6" target="rQXOLik8LWzmccsC6NVH-7">
          <mxGeometry width="50" height="50" relative="1" as="geometry">
            <mxPoint x="260" y="200" as="sourcePoint" />
            <mxPoint x="310" y="150" as="targetPoint" />
          </mxGeometry>
        </mxCell>
        <mxCell id="rQXOLik8LWzmccsC6NVH-32" value="" style="endArrow=classic;html=1;rounded=0;" edge="1" parent="1">
          <mxGeometry width="50" height="50" relative="1" as="geometry">
            <mxPoint x="240" y="170" as="sourcePoint" />
            <mxPoint x="610" y="290" as="targetPoint" />
          </mxGeometry>
        </mxCell>
      </root>
    </mxGraphModel>
  </diagram>
</mxfile>
